<?xml version="1.0" encoding="UTF-8"?>
<svg version="1.1" viewBox="0 0 2048 1230" width="1280" height="1280" xmlns="http://www.w3.org/2000/svg">
<path transform="translate(0)" d="m0 0h2048v1230h-2048z" fill="#FCFDFD"/>
<path transform="translate(1355,93)" d="m0 0h53l57 2 72 5 48 6 37 7 31 8 24 8 29 12 22 11 21 13 14 10 12 11 14 14 10 13 12 19 12 24 11 33 4 22 2 19v25l-4 30-5 24-9 29-9 20-11 20-10 15-12 16-13 15-13 13-11 9-17 13-19 12-12 6-16 5-7 1-62-1-36-2-5-1v-2l12-6 14-11 12-11 14-14 11-14 10-14 12-22 6-13 8-29 5-28 3-26v-30l-4-28-6-25-7-24-7-16-11-20-16-23-9-11-22-22-17-13-17-11-17-10-19-9-22-8-28-7-15-3-39-4h-13l-23-2h-82l1 20v179l1 82v167l-1 10-1 1h-73l-84-1v-143l-1-162-1-31-3-37-3-20-5-21-5-13-6-11-9-12-12-11-8-7-13-13v-4l16-1 54-1z" fill="#FC9857"/>
<path transform="translate(890,957)" d="m0 0h36l39 1 6 10 3 3 9 20 15 37 14 30 16 33 16 28 10 15 9 11 8 8 8 7 9 8 1 2v6l13-4 14-9 7-8 6-10 5-15 6-29 4-34 1-19 2-69v-20h-8v-1l130-1h34l1 13 1 63 3 57 2 18 6 26 5 13 6 11 9 9 14 10 9 6 6 7 3 8-1 4-5 3-28 1h-428l-38-1 1-4 11-20 8-7 8-6 5-9 1-10-3-15-14-48-11-31-10-24-13-31-7-15-9-19-4-7 16-1z" fill="#FC9757"/>
<path transform="translate(594,87)" d="m0 0 7 1 7 4 10 23 16 39 17 41 15 36 13 32 18 43 20 47 14 33 20 49 15 36 17 40 11 27 11 28 5 12v3l-7 1h-97l-28-1-5-4-9-20-10-28-11-27-13-32-12-29-13-30-15-36-11-28-14-33-11-28-12-25-9-13-5-5-3 9-6 19-2 13-7 18-13 31-32 80-12 29-12 30-10 24-30 76-4 9h-29l3-10 12-35 11-26 22-55 15-37 10-27 9-21 9-22 8-19 9-22 10-25 8-22 13-30 4-14-1-14-4-21-6-22-6-16-2-5v-5l5-3 20-6 24-11 22-12 16-9z" fill="#FAF722"/>
<path transform="translate(1245,95)" d="m0 0h84l-3 3-1 2-5 2-2 3-4-1-1 2h-2l-1 3h-4l-3 3-7 1-3 3-7 3-7 1-19-3 2 13 2 100v195l-1 59-1 56-1 19v8l-2 12-1 1-22 1h-91v-143l-1-196-3-40-3-18-6-22-5-11-5-13-3-4-6-12-5-5v-2l-5-1-6-3-7-2-1-4v-7l3-1 47-1z" fill="#FC9857"/>
<path transform="translate(1804,956)" d="m0 0h22l4 2 8 16 15 37 12 29 13 29 13 27 12 22 9 15 12 17 11 13 11 10 14 7 20 6 25 2 7 2 5 6-3 5-5 4-27 7-52 6-11 1h-15l-29-2-16-2-25-6-16-8-15-8-12-9-10-9-7-8-12-15-12-17-13-24-8-17-11-26-12-29-10-24-15-32-7-16-3-6v-2l17-1z" fill="#FC9757"/>
<path transform="translate(890,957)" d="m0 0h36l39 1 6 10 3 3 9 20 15 37 14 30 16 33 16 28 10 15 9 11 8 8 8 7 9 8 2 9-7 3-3 9-2 16-18 1h-154l-38-1 1-4 11-20 8-7 8-6 5-9 1-10-3-15-14-48-11-31-10-24-13-31-7-15-9-19-4-7 16-1z" fill="#FAF622"/>
<path transform="translate(1052,96)" d="m0 0h18l9 1 3 5 16 16 11 9 9 10 8 13 5 11 5 17 4 21 3 33 1 13 1 31 1 162v142l-1 1-13 1h-19l-2-5-1-34v-101l-1-151-2-43-3-39-4-31-3-14-5-12-7-11-14-14-16-8-5-4-3-9v-7l1-2z" fill="#29DFD7"/>
<path transform="translate(1477,96)" d="m0 0 47 3 31 3 42 6 33 7 30 8 30 11 24 11 21 11 24 16 11 9 19 19 10 13 12 19 12 24 11 33 4 22 2 19v25l-4 30-5 24-9 29-9 20-11 20-10 15-12 16-13 15-13 13-11 9-17 13-19 12-12 6-16 5-7 1h-9l-2-1 2-4 36-24 11-10 8-7 7-7 5-4 7-8 11-13 12-17 12-19 9-16 8-19 8-25 5-21 3-27v-27l-3-26-5-26-10-30-7-16-8-14-13-18-8-10-11-11-14-11-24-15-17-9-34-14-53-17-60-12-63-7z" fill="#E00FC2"/>
<path transform="translate(1401,124)" d="m0 0h19l39 4 28 6 24 7 24 10 19 10 27 18 10 8 10 9 19 19 11 15 14 21 12 23 8 24 7 28 4 25 1 8v30l-4 33-6 29-7 23-10 21-11 18-13 17-12 13-15 15-14 11-11 7-8 3-38 4h-7l4-4 24-14 15-10 14-11 12-12 13-17 10-16 10-21 6-21 3-16 3-12 3-30 1-11v-29l-3-28-5-25-7-26-6-15-8-16-13-20-8-10-12-13-11-10-14-11-15-11-24-14-25-12-24-9-25-7-26-5-12-2z" fill="#28DFD7"/>
<path transform="translate(1267,121)" d="m0 0 36 1v200l1 82v167l-1 10-1 1h-31l-1-2-1-265-1-86-1-57z" fill="#E00FC3"/>
<path transform="translate(213,958)" d="m0 0h18l11 1-2 9-6 16-13 32-15 38-9 28-5 23-2 13v9l3 14 5 14 7 11 9 9 10 6 11 6 3 3v13l4 2-14 1h-120l-41-1-15-1 3-5 7-7 8-10 30-20 15-13 12-13 10-13 10-15 12-19 9-19 11-28 22-58 7-16z" fill="#FAF722"/>
<path transform="translate(575,86)" d="m0 0 5 1 1 4-9 6-22 12-16 8-20 9-19 6-3 1 3 10 7 19 5 19 4 21 1 14-6 19-11 25-11 30-10 24-13 32-9 21-9 22-10 26-11 28-11 27-20 50-8 19-14 40-7 3h-24l1-7 10-25 14-36 11-26 6-15 24-58 16-39 15-37 23-57 15-40 5-18 1-5v-10l-2-13-6-22-8-21-6-12-1-5 20-7 16-8 20-9 29-13 21-9z" fill="#0AE2CD"/>
<path transform="translate(628,84)" d="m0 0h6l14 33 20 50 19 45 19 46 17 41 18 43 12 29 15 36 31 74 14 33 18 43 9 21 2 6-16-2-15-1-5-10-11-28-16-39-15-35-19-46-20-49-13-30-13-31-17-40-11-27-18-44-16-38-15-37-11-26-3-6 1-4 15-5z" fill="#DF10C2"/>
<path transform="translate(431,714)" d="m0 0h44l17 3 17 8 12 10 9 13 5 11 3 12v19l-3 15-8 16-9 10-10 8-13 6-16 4-14 1h-34z" fill="#030203"/>
<path transform="translate(501,129)" d="m0 0 4 1-9 4 3 14 4 10 10 32 5 24 7 16 5 9 7 11-1 2-6-8-2-1-3 9-6 19-2 13-7 18-13 31-32 80-12 29-12 30-10 24-30 76-4 9h-29l3-10 12-35 11-26 22-55 15-37 10-27 9-21 9-22 8-19 9-22 10-25 8-22 13-30 4-14-1-14-4-21-6-22-6-16-2-5v-5l5-3z" fill="#F5F85E"/>
<path transform="translate(1335,714)" d="m0 0h58l9 2 10 5 7 6 6 11 2 6v20l-3 10-6 8-8 7-8 5 2 4 9 11 11 12 7 8 12 15 2 5-1 1h-32l-6-3-8-11-10-11-9-12-9-11-3-3-1 1v33l-1 15-1 1-29 1z" fill="#030203"/>
<path transform="translate(528,243)" d="m0 0 3 1 8 11 8 14 9 19 12 31 14 33 14 35 13 31 16 37 12 30 10 24 9 23 10 28 8 17v3h-22l-10-2-4-8-9-24-16-38-13-31-18-43-11-25-14-35-9-22-10-26-8-16-4-10-6-14-3-5 2-14 7-21z" fill="#0AE2CD"/>
<path transform="translate(1174,713)" d="m0 0h6l5 4 11 27 30 75 12 29v2h-32l-5-10-5-15-5-2h-47l-3 4-6 17-3 5-4 1-29-1 9-20 19-47 14-35 11-27 4-6z" fill="#030203"/>
<path transform="translate(1636,958)" d="m0 0 35 1 10 21 9 20 14 31 11 28 14 32 8 18 12 23 12 17 10 13 9 10 4 5 8 7 13 9 22 12 14 5 22 5v1h-20l-23-1-14-4-21-9-15-9-12-9-12-11-8-8-13-17-10-15-20-36-13-28-15-34-19-45-12-28z" fill="#29DFD7"/>
<path transform="translate(714,713)" d="m0 0h2v85l3 14 3 5 6 3 4 1h10l9-3 5-4 2-3 2-18 1-79h30v93l-3 16-6 12-7 7-14 7-13 3h-17l-15-3-9-4-9-6-7-11-4-12-2-15v-69l1-18z" fill="#030203"/>
<path transform="translate(1355,93)" d="m0 0h53l57 2 12 1v1h-22l-31-1 19 3 10 2v2l2 1h-2l-1 4v7l7 3v5h-2v2l5 2 17 4v1l-10-1-18-3-31-3h-13l-23-2h-81l-25-1-11-1 1 52 1 56 1 86 1 266-8 1h-34v-1l10-1 19-1 2-12v-15l1-12 1-69 1-57v-184l-2-100-1-13 20 2 9-2 5-3 3-2 8-1 2-4 3 1 1-2h2l1-3 4 1 4-4h3v-4h-80l-106 1-50 1 1 7 1 4 8 2 9 4 8 10 11 22 5 13 5 16 4 18 2 18 2 30v34h-1l-1-31-3-37-3-20-5-21-5-13-6-11-9-12-12-11-8-7-13-13v-4l16-1 54-1z" fill="#E29D81"/>
<path transform="translate(1269,957)" d="m0 0h34l1 13 1 63 3 57 2 18 6 26 5 13 6 11 9 9 14 10 9 6 6 7 3 8-1 4-5 3h-27l-1-2-2-16-6-4-12-6-10-8-8-9-10-18-6-17-5-30-4-32-2-37-1-30v-38z" fill="#E00EC3"/>
<path transform="translate(1804,956)" d="m0 0h22l4 2 8 16 15 37 12 29 13 29 13 27 12 22 9 15 12 17 11 13 11 10 14 7 20 6 25 2 7 2 5 6-3 5-5 4-27 7-7 1h-14l5-4 5-3 8-4 3-4v-5l-5-3-5-1-27-1-13-5-13-7-10-7-9-8-13-17-10-15-11-19-15-29-13-27-15-33-15-35-10-21-3-5v-3z" fill="#DF10C2"/>
<path transform="translate(800,958)" d="m0 0h27l5 2 8 14 12 26 8 19 10 24 9 23 11 33 11 38 2 12-1 10-5 9-10 8-7 6-10 19-2 3h-26l-2-1-1-3v-8l3-7 6-5 13-9 8-11v-18l-3-16-12-37-10-25-11-26-13-30-11-28-10-19z" fill="#0AE2CD"/>
<path transform="translate(1731,714)" d="m0 0h78v24l-1 3-24 1h-22l1 25 44 1v27l-45 1 1 26 46 1v27h-77l-1-77z" fill="#030203"/>
<path transform="translate(245,714)" d="m0 0h77v27l-47 1 1 23 1 2 43 1 1 23-1 4-41 1-3 1v22l1 3 45 1v27h-77z" fill="#030203"/>
<path transform="translate(960,712)" d="m0 0h23l19 5 10 5 1 4-12 23-18-6h-20l-11 4-10 6-7 9-4 8-1 3v16l4 11 7 10 8 6 10 4 4 1h18l17-5h5l4 9 3 7 4 5-2 4-12 6-15 4-6 1h-19l-16-4-12-6-11-8-10-10-9-14-4-10-2-10v-14l3-15 8-16 8-10 7-7 11-7 11-5z" fill="#030203"/>
<path transform="translate(1114,958)" d="m0 0h23l10 1 1 5v15l-2 69-1 19-4 34-7 33-5 12-7 12-7 7-9 6-11 4-6 1-1-10-2-1 2-4 3-4v-7l4-1v-6l3-7 4-25 3-25 2-23 2-33 3-70z" fill="#29DED7"/>
<path transform="translate(517,282)" d="m0 0 4 4 8 19v8l-5 16-8 23-34 84-11 27-16 40-19 46-9 21-5 9-4 3-21-1 1-4 17-43 11-28 18-44 15-37 11-27 26-65 14-33 6-16z" fill="#D111BB"/>
<path transform="translate(213,958)" d="m0 0h18l11 1-2 9-6 16-13 32-15 38-9 28-5 23-2 13v9l3 14 5 14 7 11 9 9 10 6 11 6 3 3v13l4 2h-13l-2-5-5-4-2-5-2-8-1-3-5-2v-2l-4-2-8-7-7-9-7-15v-2l-4-2v-2l-5-5-4-5-4-10h-7l-6 4-6 8-4 4-4 5-8 6-16 8-6 4-10 9-4 5-3 5-2 3h-2l-2 5-5 8-6 8-6 4 30 1v1h-35l-15-1 3-5 7-7 8-10 30-20 15-13 12-13 10-13 10-15 12-19 9-19 11-28 22-58 7-16z" fill="#F5F85F"/>
<path transform="translate(190,957)" d="m0 0h22v4l-13 30-12 33-14 36-10 23-6 11-11 17-11 16-11 13-9 10-11 10-14 10-16 10-5 4-9 11-8 9-23 1-3-2 1-10 4-8 7-5 19-8 12-9 11-9 9-9 9-11 11-15 13-21 18-35 12-25 12-28 11-28 7-16 5-8z" fill="#09E2CD"/>
<path transform="translate(252,957)" d="m0 0h20l-2 6-10 23-13 32-9 24-7 22-7 29-3 20v22l4 16 6 12 7 7 22 14 4 5 3 7v6l-1 2-4 1h-20l-5-2v-13l-10-7-10-5-10-9-6-7-7-14-4-14-1-7v-9l4-23 6-23 9-26 12-30 15-37 7-21z" fill="#E011C2"/>
<path transform="translate(1742,957)" d="m0 0h53l11 23 11 24 11 26 17 36 14 29 14 26 12 19 13 17 8 9 10 7 14 8 12 5 3 1 27 1 7 2 4 3-1 7-6 5-9 4-4 4v1l-33 4-11 1h-15l-29-2-16-2-5-1v-1h12l21-3 17-1 5-1 12 1 10-2 4-2-3-3-8-3-4-4-10-2-3-2-1 4-9-1-1-2-1-4h-1l-1-6-6-1-1-3-2 2h-4v-2h-6l1-3-7-3-2-5 1-6-4-12-7-14-9-17-6-14-5-10-7-16-18-45-4-9-8-16-6-9-5-6-2-2 1-2h-2l2-6 1-2h2l1-3 2 4 1-2 2 1 2 5 3 3 1 5 7 1-3-7-5-10-5-9-4-5-6-4-33-1h-11z" fill="#FA9567"/>
<path transform="translate(594,87)" d="m0 0 7 1 7 4 10 23 16 39 17 41 15 36 13 32 18 43 20 47 14 33 20 49 15 36 17 40 11 27 11 28 5 12v3l-7 1h-97l-28-1-5-4-9-20-10-28-11-27-13-32-7-17 1-3 8 18 8 19 7 16 12 30 9 17 6 11 3 7 1 9 1 2 38 1h78l-3-7-4-15-3-13-1-12-5-11-6-16-3-6-3-8-6-10-6-12v-5h-2l-5-15-7-14-6-14-8-16-4-9-6-15-6-13-6-18-5-9-7-16-7-17-6-17-4-6-6-16-3-6-2-12-5-12-7-17-4-8-3-8-3-7-4-10-3-5-3-8-5-9-4-8-3-10-3-1-8-15-6-8-6-11-6-8-4-3-10-4-5-1-12 6-18 10-23 10-3-1 24-11 22-12 16-9z" fill="#F6F969"/>
<path transform="translate(1535,714)" d="m0 0h96v17l-1 9-1 1-30 1-1 91-1 16-17 1h-13l-1-108-30-1z" fill="#030203"/>
<path transform="translate(967,957)" d="m0 0h28l4 5 11 24 13 32 13 30 17 35 14 25 16 26 8 14 1 9-6 8 3 1-2 2-14-13-8-7-10-11-10-15-15-26-12-23-17-36-18-43-7-16-8-17z" fill="#E010C2"/>
<path transform="translate(1705,159)" d="m0 0 5 2 16 10 10 8 12 11 7 7 13 18 9 14 8 15 9 25 5 17 6 36 1 12v27l-3 27-7 28-9 26-8 16-9 16-7 11-12 17-14 17-6 5 2-4 7-8 13-17 7-10 12-19 3-6-2-5-2-7 8-27 3-17 1-5v-9l4-22 2-10h1l1-19 1-7-1-7v-27l-2-5v-5l-4-1-2-7-3-3-4-12-9-14-12-14-9-11-12-17-2-3 2-6-2-4-4-5-8-7-9-8-3-6 4-2 1-2-6-2z" fill="#FA9566"/>
<path transform="translate(613,92)" d="m0 0 4 2 4 12 4 4 5 12 7 15 6 16 6 14 3 6 3 8 5 12 3 7 3 8 5 13 3 5 3 9 8 21 6 12 2 7 7 14 10 25 6 12 5 14 2 3 4 13 8 16 1 7h2l5 12 7 17 4 10 5 11 2 5v3l2 1 2 7 1 6h2l5 13 4 10 6 14 6 16 5 13v3l2 1 1 4 4 11 3 9v7l3 5 2 5-1 4 3 1v2l3 1 4 5 9 4 1 2h-17l-5-10-11-28-16-39-15-35-19-46-20-49-13-30-13-31-17-40-11-27-18-44-16-38-15-37-11-26-2-4 1-4z" fill="#F30BC0"/>
<path transform="translate(1139,958)" d="m0 0h129l2 68 2 37 5 40 5 25 6 16 9 16 10 11 14 9 10 5 2 2 2 18-1 1h-111v-1l108-1-5-5-9-14v-2h-2l-5-5-8-9v3l-7-1-11-2-12-12v-3h-4l-7-32-4-28v-12l-1-17-1-2-5-36-1-7 1-5-2-8 1-1-1-10 1-3h2l-2-5v-9l5 3 8 5v-15l-2-6-5-3-1-4-105 1v41l-1 45-2 26-4 29h-1v-9l3-25 1-19 2-69v-20h-8z" fill="#FA9566"/>
<path transform="translate(1401,124)" d="m0 0h19l39 4 28 6 24 7 24 10 19 10 27 18 10 8 10 9 19 19 11 15 14 21 12 23 8 24 7 28 4 25 1 8v30l-4 33-6 29-7 23-6 13-1-3 3-7-1-6 7-30 2-12 3-33 1-29v-19l-2-18-5-21-5-14-4-10-5-14-7-14-6-9v-2h-2l-7-11-9-12-9-11-1-3h-2l-7-8-5-4-5-5-16-9-14-7-19-10-15-7-17-4-14-5-20-8-21-7-21-5-29-5z" fill="#4EC2B5"/>
<path transform="translate(1320,101)" d="m0 0 4 3v2l2 1-1 5 9 5 7 2h23l20 1v1l-59 1h-47l-11-1 1 52 1 56 1 86 1 266-8 1h-34v-1l10-1 19-1 2-12v-15l1-12 1-69 1-57v-184l-2-100-1-13 20 2 9-2 5-3 3-2 8-1 2-4 3 1 1-2h2l1-3 4 1z" fill="#FC9B79"/>
<path transform="translate(1092,150)" d="m0 0 3 3 5 12 5 26 3 31 2 21 1 37 1 72v-10-3-59l1-23 3 1 4 13 1 9 3 7 1-2 6 2v11l-3 36-2 10-3 1v13l-1 1-1 7v64l-1 52-2 30-1 5v1 9l-2 10h-1l-1-10v47l1 6 18 1v1h-19l-2-5-1-34v-101l-1-151-2-43-3-39-4-31-3-14-5-12z" fill="#09E2CD"/>
<path transform="translate(464,741)" d="m0 0 14 2 9 4 7 5 7 9 4 10v21l-4 10-7 10-10 6-10 4-9 1-3-2-1-7v-56l1-16z" fill="#F9F6FA"/>
<path transform="translate(1072,97)" d="m0 0h7l3 5 16 16 11 9 9 10 8 13 5 11 5 17 4 21 3 33 1 13 1 31 1 162v142l-3 1-6-1 2-1 2-23v-12h-1l-1-8-1-31v-16l1-20 1-45v-96l-1-60-2-33-1-11v-22l-2-1-1-5-1-9-4-17-4-12-8-16-7-8v-2l-14-7-5-3-5-7-3-7-6-7-2-1v-2z" fill="#4EC2B5"/>
<path transform="translate(1654,959)" d="m0 0h17l10 21 9 20 14 31 11 28 14 32 8 18 12 23 12 17 10 13 9 10 4 5 8 7 13 9 22 12 14 5 13 3v1l-14-1-16-2-14-6-14-7v-2h-2l-2-5-6-1-3-2v-2l-3-1-12-15-7-11-1-3h-2l-3-5-6-11-2-4h-2l-10-14-8-13-9-17-11-24-12-30-7-17-8-23-11-30-2-7-13-1z" fill="#4FC2B5"/>
<path transform="translate(187,958)" d="m0 0h23l-2 6-4 11-3 1h-10v-2l-2-1 3-7 6-4 5-2-11-1-6 12-4 21-6 15-9 17-7 20-10 25-8 21-10 20-7 9-4 6-6 4-1 2-8 4-14 12-14 14-4 3-2-1 3-5 8-7 12-13 10-13 11-17 9-16 14-27 13-27 12-28 11-28 7-16z" fill="#25DFD6"/>
<path transform="translate(890,957)" d="m0 0h36l39 1 6 10 3 3 9 20 15 37 14 30 16 33 16 28 10 15 9 11 8 8h-3l-7-4-11-12-9-13-8-13-10-16-5-5-3-4v-2l-3-1-8-17-7-20-9-17-6-9-7-14-4-6-3-7-10-17-10-14-1-2h-112l3 7-1 3-6-11 16-1z" fill="#F6F765"/>
<path transform="translate(1414,95)" d="m0 0h19l42 2 63 7 29 6-4 1 1 6-1 4h-5l1 4-3 3-6 1-8-1h-5l-1 5-10-2-9-3-14-4-2-2 2-1-5-1 1-4-11-2-21-6-5-1v-2l-9-2v-2h-7l-5-1-17-3-10-1z" fill="#F99567"/>
<path transform="translate(461,424)" d="m0 0h1v5l-2 6-3 5-2 10-6 12-3 11-1 5h-2l-1 5 3 6-1 8-2-2-2 7-1 3v7l-4 17 1 2-2 5 1 2h2v2h2l-3 9-9 21-5 9-4 3-21-1 1-4 17-43 11-28 18-44 15-37z" fill="#C219B4"/>
<path transform="translate(1804,956)" d="m0 0h19v1l-14 3-1 8 10 18v2l4 2 3 5v3h2l1 6 3 9 1 6 2 1 3 7 2 3 3 11 2 1 1 4 3 8 3 9 2 1 2 9h2l4 10 8 16 9 16 6 11 4 7 6 10 2 1 1 6 4 2 3 6h2v2l5 2 4 3v2l5 2 4 4 4 7-6-2-12-8-10-9-13-17-10-15-11-19-15-29-13-27-15-33-15-35-10-21-3-5v-3z" fill="#F309C0"/>
<path transform="translate(244,961)" d="m0 0 2 3-3 10-5 13-3 8 2-1v2l4-1 1 9-4 13-2 3-2 9-1 5-2 7-3 3-2 6v6l-3 7-2 4h-2l-1 6-5 9-1 9-4 6h-2l2 4h-4l-4-7-4 5h-2v-8l5-19 9-26 12-30 15-37 6-16z" fill="#D110BB"/>
<path transform="translate(1139,958)" d="m0 0h129l2 68 2 37 5 40 5 25 6 16 9 16 10 11 14 9 10 5 2 2 2 18-1 1h-111v-1l108-1-5-5-9-14v-2h-2l-5-5-8-9-8-6-6-8-6-13-7-25-2-19-6-17-2-23-2-60-1-18v-8l-2-6-5-3-1-4-105 1v41l-1 45-2 26-4 29h-1v-9l3-25 1-19 2-69v-20h-8z" fill="#FB9B79"/>
<path transform="translate(418,389)" d="m0 0 1 3-2 9-7 17-5 12-3 11-6 14-5 13-12 25-5 12-12 30-5 12-4 13 6-4 1-2h2l2-4h5v4l3 1-2 4-3 8-1 2 7-11 1 2-8 16-4 4-4 1h-18l-1-6 10-25 14-36 11-26 6-15 24-58 7-17h3l2-7z" fill="#28DFD7"/>
<path transform="translate(1705,159)" d="m0 0 5 2 16 10 10 8 12 11 7 7 13 18 9 14 8 15 9 25 5 17 6 36 1 12v27l-3 27-7 28-9 26-8 16-9 16-7 11-12 17-14 17-6 5 2-4 7-8 13-17 7-10 12-19 6-13 3-11 4-9 6-16 6-23 2-13 1-16v-33l-3-25-5-25-5-17-5-13-7-14v-2h-2l-7-12-7-11-5-6v-3h-2l-3-5-1-3h-2l-4-4v-3l-4-2-3-2v-2l-5-2v-2l-5-2v-2l-4-2-8-6-6-3z" fill="#FB9B79"/>
<path transform="translate(1245,95)" d="m0 0h84l-3 3-1 2-5 2-2 3-4-1-1 2h-2l-1 3h-4l-3 3-7 1-3 3-7 3-7 1-21-3v-2l-2-2 1-3h-6l-1-3-4 1-1-2 1-2-4-1-12-5h-11l-13 1-9-1-54-1v-1z" fill="#F99568"/>
<path transform="translate(481,215)" d="m0 0 2 1v10l1 2v16l-3 11-4 12-5 17-9 20-12 21-2 5-6 11-5 13-4 6-2 5-6 10-1 2h-2l-1-6 13-32 23-57 15-40 5-18z" fill="#29DFD7"/>
<path transform="translate(981,976)" d="m0 0 3 1 9 16 6 15 3 5 7 15 2 5 6 16 2 2 5 14 6 10 1 6h2l6 13 6 9 9 19 11 18v3h2l1 5h-3l-10-11-10-15-15-26-12-23-17-36-18-43-3-9z" fill="#F309C0"/>
<path transform="translate(1839,1056)" d="m0 0 3 4 19 39 12 22 12 19 13 17 8 9 10 7 14 8 12 5 3 1 27 1 7 2 4 3-1 7-6 5-4 1-9-2-6-2-6-1h-7l-16-8-6-7-3-5v-2h-2v-2l-7-1-6-4-7-6-3-5-6-9-8-9-3-5-4-5-19-38-4-12-3-5-5-13-3-5z" fill="#FD9B79"/>
<path transform="translate(537,317)" d="m0 0 5 3 2 2v3l4 2 7 8 5 8 5 10 6 19 4 14 7 28 13 37 1 6-3-3-3-9-4-2-15-34-14-35-9-22-10-26-2-5z" fill="#26DFD6"/>
<path transform="translate(517,282)" d="m0 0 4 4 8 19v8l-5 16-5 15h-2l-3-7-7 3-2 2h-2l-2-4-4 9-7 16-4 10-3 2-2 9-2 5-4 4h-2l3-10 20-50 14-33 6-16z" fill="#C31AB4"/>
<path transform="translate(1640,510)" d="m0 0 1 2-5 13-12 16-1 2h-2l-2 5-3 3-1 7-1 4 4 13 8 5h31l6-2-2 4h-51l-36-2-5-1v-2l12-6 14-11 12-11 14-14 11-14z" fill="#F8966A"/>
<path transform="translate(1643,503)" d="m0 0 1 2-8 12-10 13-12 13-15 15-14 11-11 7-8 3-11 1h-11v-2l12-6 4-5h2v-2l13-10 23-12 14-9 11-8h2v-2h2l2-4 5-4z" fill="#4BC3B6"/>
<path transform="translate(1477,96)" d="m0 0 47 3 31 3 42 6 33 7 30 8 6 2-4 2-10-3-12-1-2 1v4l-9-1-31-10-60-12-63-7z" fill="#C721B2"/>
<path transform="translate(1138,959)" d="m0 0h9l1 5v15l-2 69-1 19-4 34-7 33-3 8-1-3 1-4 1-17 4-28 2-28 2-52 1-17 1-33z" fill="#4FC2B5"/>
<path transform="translate(1755,194)" d="m0 0 9 4v2h2l6 8v2h2l6 9v3l3 1 6 11 8 16 4 11 1 2-1 4 2 1 4 20v20l-3 6h-1l-6-32-10-30-7-16-8-14-13-18-6-9z" fill="#F309C1"/>
<path transform="translate(1302,343)" d="m0 0h1l1 61v167l-1 10h-6v-4l1-5 1-1v-43l-1-84 1-32 1-5 1-54z" fill="#F222B5"/>
<path transform="translate(1623,274)" d="m0 0 2 2 6 21 6 25 3 19-4-28 3 4 4 15-1 5 1 7 1 12 3 6 1 6v22l-2 16-2-1-2 13-4 23-3 11-1 4-4 8v5l-1 3-5 10-2 6-8 15-3 3-1-2 9-17 6-15 4-15 3-16 3-12 3-30 1-11v-29l-3-28-5-25-7-26z" fill="#0EE2CE"/>
<path transform="translate(1367,738)" d="m0 0 12 1 11 4 4 4 1 3v14l-5 6-8 4-12 1-4-3v-33z" fill="#F8F5F8"/>
<path transform="translate(1688,958)" d="m0 0h50v1l-35 1h-22l3 8 1 12 12 25 5 11 2 9 8 16 13 31 6 13 9 19 5 12 5 15-1 2-12-22-8-17-11-26-12-29-10-24-15-32-7-16-3-6v-2z" fill="#EA9D7E"/>
<path transform="translate(1320,101)" d="m0 0 4 3v2l2 1-1 5 9 5 7 2h23l20 1v1l-59 1h-58l-1 1-1 21-1 7-1 19h-1l-1-40-1-13 20 2 9-2 5-3 3-2 8-1 2-4 3 1 1-2h2l1-3 4 1z" fill="#FC9A77"/>
<path transform="translate(604,477)" d="m0 0 4 5 8 15 5 12 6 13 7 17 8 15v2l3 1 6 14 2 1v2h2l-1 5h-10l-4-4-11-29-24-57 1-6-2-1z" fill="#24DFD6"/>
<path transform="translate(1149,94)" d="m0 0h25l71 1v1l-106 1-50 1 1 7 1 4 8 2 9 4 8 10 11 22 5 13 5 16 4 18 2 18 2 30v34h-1l-1-31-3-37-3-20-5-21-5-13-6-11-9-12-12-11-8-7-13-13v-4l16-1z" fill="#DC8983"/>
<path transform="translate(1977,1186)" d="m0 0 28 2 7 2 5 6-3 5-5 4-27 7-7 1h-14l5-4 5-3 8-4 3-4v-5l-5-3z" fill="#E112C1"/>
<path transform="translate(239,1173)" d="m0 0 7 2 14 9 4 5 3 7v6l-1 2-4 1h-20l-5-2 2-15-1-6-3-1-1-3 2-2h3z" fill="#DF0FC2"/>
<path transform="translate(1640,122)" d="m0 0 12 1 11 3 8 1 21 8 6 3v2h-6l7 3h4v3l2 1-10 2-7-3v-2h-8l-8-3-11-3-13-5-13-4 3-1-1-4z" fill="#D212BB"/>
<path transform="translate(1266,122)" d="m0 0h1l1 51 1 56v87h-1l-1-20-2-15-1-54-1-23v-55l1-5 1-21z" fill="#EB9C7D"/>
<path transform="translate(1263,348)" d="m0 0h1v77l-1 59-1 56-1 19v8l-2 1-2-3h-3v-10l2-15 1-25 1-1 1-19-1-7v-10l1-7 1-16v-14l1-33v-27l1-7z" fill="#FA9567"/>
<path transform="translate(1167,758)" d="m0 0h3l5 10 9 27-1 1h-28l1-8 10-29z" fill="#F1EFF4"/>
<path transform="translate(1935,1205)" d="m0 0 3 2v4l4 1v2l19-2 2 2-33 4-11 1h-15l-29-2-16-2-5-1v-1h12l21-3 17-1 5-1 12 1 10-2z" fill="#F89669"/>
<path transform="translate(1290,1138)" d="m0 0 3 1 8 14 3 4v2h2l7 8 6 3 10 4 4 2h2v4h2l5 6v4l3 1 1 5-2 3h-2v2l-4 2 1 2h-4l-1-2-2-16-6-4-12-6-10-8-8-9-3-6v-4l-3-9z" fill="#F309C1"/>
<path transform="translate(1274,1105)" d="m0 0h2l1 10h2l4 16 6 15 8 14 10 11 14 9 10 5 2 2 2 18-1 1h-111v-1l108-1-5-5-9-14v-2h-2l-5-5-8-9-8-6-6-8-6-13-7-25z" fill="#F89B7A"/>
<path transform="translate(575,86)" d="m0 0 5 1 1 4-9 6-22 12-11 4-14 6-12 4-12 5-7 2h-6l4-4 21-8 30-14 9-5v-3-2l18-7z" fill="#48C5B7"/>
<path transform="translate(190,1111)" d="m0 0h1v6h2v2h2l2 12 8 20 3 5v3h2l6 10 11 8 8 2 3 3 2 9-1 8h-1l-1-9-10-7-10-5-10-9-6-7-7-14-4-14-1-7v-9z" fill="#F30AC0"/>
<path transform="translate(623,450)" d="m0 0 3 4 14 33 7 16 12 30 9 17 6 11 3 7 1 9 1 2 38 1h68l7 1v1h-86l-28-1-5-4-9-20-10-28-11-27-13-32-7-17z" fill="#F6FA5D"/>
<path transform="translate(476,129)" d="m0 0h2l1 5 2 1v2h-2l-2 5-2 8 1 12 1 17h-2v-2h-3l-8-22-7-14-1-5z" fill="#25DFD6"/>
<path transform="translate(1059,1096)" d="m0 0 3 3 16 27 11 18 3 8-1 7-5 6 3 1-2 2-13-12 3-1-7-10-1-9 5-1h4l1-4h-2l-8-16-9-15z" fill="#C021B2"/>
<path transform="translate(1268,122)" d="m0 0h33v8l-2 3h-3l-1 3-6 1-10-2-4 3-2-5h-4l-1 2z" fill="#D010BB"/>
<path transform="translate(869,1168)" d="m0 0 3 2-2 7-2 2-2 4-6 7-8 13-10 1-2-1 1-10 4-6 11-7 12-11z" fill="#29DFD7"/>
<path transform="translate(1705,159)" d="m0 0 5 2 16 10 10 8 12 11 7 7 13 18 3 4-1 4 3 9h-2l-12-19-5-6v-3h-2l-3-5-1-3h-2l-4-4v-3l-4-2-3-2v-2l-5-2v-2l-5-2v-2l-4-2-8-6-6-3z" fill="#FD9A78"/>
<path transform="translate(1288,104)" d="m0 0 16 1 3 2-2 4-4 2h-5l-3 3-7 3-7 1-13-2v-2h-3v-2l5-3 5-2 1-3z" fill="#FC9757"/>
<path transform="translate(429,545)" d="m0 0h4l1 4 1 3-9 20-5 8-3 2-21-1 1-3v2l3-2 5-4h2l1 2 4-4h3l2-6 5-10h2l1-6z" fill="#D111BB"/>
<path transform="translate(1459,121)" d="m0 0 18 3 5 1 12 1 2 2 5 2 6 5 4 2v2l9 3 2 1v2l2 1-5-1-24-8-16-4v-2l-9-1-9-3-4-2v-2h2z" fill="#FA9567"/>
<path transform="translate(51,1179)" d="m0 0 2 1-2 2-2 10v8l3 1v3l-23 1-2-1v-2h2l1-7 5-8 5-3 8-3z" fill="#2ADDD5"/>
<path transform="translate(1114,958)" d="m0 0h23l1 2h-23l-1 5-1 38-3 51-2 29v10h-2v16h-2l-1 14-4 20-3 8-4 3-1-4 4-1v-6l3-7 4-25 3-25 2-23 2-33 3-70z" fill="#09E3CD"/>
<path transform="translate(1269,957)" d="m0 0h34l1 13 1 63 2 47h-2l-2-35-1-31-4-20v-9l1-10 2-5 1-12h-33z" fill="#F128B2"/>
<path transform="translate(838,970)" d="m0 0 3 3 16 34 14 33 11 29 9 25 4 15 2 8 4 15v5l-2-3-14-48-11-31-10-24-13-31-7-15-6-13z" fill="#F6FA5D"/>
<path transform="translate(1742,957)" d="m0 0h53l11 23 11 24 9 21-1 3-14-28-4-10-8-16-7-10-6-4-33-1h-11z" fill="#EC9C7D"/>
<path transform="translate(1139,958)" d="m0 0h69v1l-59 1v41l-1 45-2 26-4 29h-1v-9l3-25 1-19 2-69v-20h-8z" fill="#EA9D7E"/>
<path transform="translate(1650,992)" d="m0 0 3 4 16 37 18 40 11 23 13 25 9 15 10 15-1 2-11-15-12-21-11-20-13-28-15-34-17-40z" fill="#09E3CD"/>
<path transform="translate(1688,958)" d="m0 0h50v1l-35 1h-22l3 8 1 12 12 25 5 11-1 3-8-17-10-19-3-6v-2h-2l-7-14v-2z" fill="#FA9567"/>
<path transform="translate(1146,450)" d="m0 0h1l1 44v78l-1 8h79v1h-81v-44z" fill="#EB9C7D"/>
<path transform="translate(1721,532)" d="m0 0 2 1-11 11-11 9-9 7-6 4-2-1 2-3-4-1 5-8 8-6 10-6 5 1h2l8-7z" fill="#FA9567"/>
<path transform="translate(1148,507)" d="m0 0 2 4 2 39 3 17 2 13h-10v-32z" fill="#FA9567"/>
<path transform="translate(382,469)" d="m0 0 2 1-3 10-12 31-15 36-6 14h-2l1-6 16-41 11-26 6-15z" fill="#0CE2CE"/>
<path transform="translate(137,1118)" d="m0 0h2l-1 5-8 10-12 14-7 7-11 9-9 6-3-1 7-6 11-9 10-10 6-12 5-4 7-6 3-1z" fill="#21E0D5"/>
<path transform="translate(1781,453)" d="m0 0 1 3-14 26-12 18-9 11-9 10-13 13-8 7-12 11-5 4-2-1 12-11 8-7 7-7 5-4 7-8 11-13 12-17 12-19z" fill="#F409C1"/>
<path transform="translate(251,1180)" d="m0 0 5 1 7 6 4 9v6l-1 2-4 1h-9l-7-1v-2l4-2 2-8 7-2-4-7-4-2z" fill="#CF15B9"/>
<path transform="translate(800,958)" d="m0 0h27l4 1v2h-20l-1 6 6 16 3 10-1 4h-2l-9-21-8-15z" fill="#21DFD3"/>
<path transform="translate(1663,291)" d="m0 0 2 3 7 26 6 30 1 10v25l-2 24-6 31-2 7-1-4 5-28 3-26v-30l-4-28-6-25-3-11z" fill="#EA9D7E"/>
<path transform="translate(1274,1105)" d="m0 0h2l1 10h2l4 16 6 15 8 14 10 11 5 5 2 4-5-3-7-8-8-6-6-8-6-13-7-25z" fill="#FD9B79"/>
<path transform="translate(1935,1205)" d="m0 0 3 2v4l4 1v2l19-2 2 2-33 4-11 1h-15l2-2 9-2 7-3v-1l7-1v-2z" fill="#FA9B79"/>
<path transform="translate(1263,958)" d="m0 0h5l2 68v13h-1l-2-15-2-18-1-31z" fill="#EA9D7E"/>
<path transform="translate(888,1174)" d="m0 0 2 1-3 3-3 15-8 9v1l24 1v1h-32l1-4 11-20z" fill="#F6F95C"/>
<path transform="translate(198,958)" d="m0 0h12l-2 6-4 11-3 1h-10v-2l-2-1 3-7 6-4 5-2-5-1z" fill="#2ADFD8"/>
<path transform="translate(1623,274)" d="m0 0 2 2 6 21 6 25 3 19-4-28 3 4 4 15-1 5 1 7v12h-1l-1 11h-1l-4-36-5-25-7-26z" fill="#09E3CD"/>
<path transform="translate(843,986)" d="m0 0 2 3 12 27 15 37 5 13-1 3-8-16-10-25-8-21-5-11-2-5z" fill="#2ADFD8"/>
<path transform="translate(1316,1183)" d="m0 0 4 5 7 11 6 6h-15l-1-4 1-3-1-3-4-2-4-6v-2z" fill="#FA9567"/>
<path transform="translate(477,229)" d="m0 0 2 1-2 10-7 21-12 30-5 12-2-1 1-5 9-23 13-35z" fill="#0DE2CE"/>
<path transform="translate(1208,958)" d="m0 0h55l1 1 1 16v31h-1l-2-26v-8l-2-6-5-3-1-4h-46z" fill="#FE9B79"/>
<path transform="translate(1741,1105)" d="m0 0 4 5 8 15 5 13 4 8 5 9-1 2-12-16-4-6-9-27z" fill="#F89667"/>
<path transform="translate(450,302)" d="m0 0 2 4-11 27-16 39-1 2h-2l1-5 12-30z" fill="#0DE2CE"/>
<path transform="translate(1269,166)" d="m0 0h1l2 18 1 15-2 13-1 2-1 15h-1l-1-57h2z" fill="#F009C1"/>
<path transform="translate(890,957)" d="m0 0h36l21 1v1l-112 1 3 7-1 3-6-11 16-1z" fill="#F6FA5D"/>
<path transform="translate(215,1032)" d="m0 0 2 4-2 7-2 6-5 12-4 8h-2v4h-2l-1 2 2-9 7-20 5-13z" fill="#C418B4"/>
<path transform="translate(1836,305)" d="m0 0h1l3 25v25l-1 6h-1l-2-26-2-9 1-7-1-6z" fill="#F21CB8"/>
<path transform="translate(1073,1122)" d="m0 0 3 4 1 5h2l-1 5h-8v8l-4-4-2-8v-5l2-2h5l1 1z" fill="#D110BC"/>
<path transform="translate(1020,1029)" d="m0 0 5 1 2 2 3 9v6h2l5 9 1 5 2 6 4 6 1 5h-2l-4-6-6-14-4-8-5-12z" fill="#F409C1"/>
<path transform="translate(1260,117)" d="m0 0 10 1 9 1v1h-12l-1 3-1 21-1 7-1 19h-1l-1-40z" fill="#FE9B79"/>
<path transform="translate(170,1059)" d="m0 0h1l-1 8-8 18-7 12-6 9h-2l1-5 7-11 6-11 7-16z" fill="#1BE0D3"/>
<path transform="translate(1778,455)" d="m0 0h2l-2 5-8 14-7 11-12 17-14 17-6 5 2-4 7-8 13-17 7-10 12-19z" fill="#FA9B79"/>
<path transform="translate(1753,529)" d="m0 0 1 2h4l-2 4-14 12-5 4h-2l1-7 4-1 1-3h2l1-5h2l1-2 5-2z" fill="#D415B9"/>
<path transform="translate(416,573)" d="m0 0h7l1 3-4 5-2 1-21-1 1-3v2l3-2 5-4h2l2 3 5-1z" fill="#E117BD"/>
<path transform="translate(1123,1155)" d="m0 0 1 2-3 10-8 7-9 1-2-1 1-3 9-5 9-8z" fill="#F7966A"/>
<path transform="translate(1797,282)" d="m0 0 2 4 6 36 1 12v27l-1 8h-1v-28l-2-20-5-32z" fill="#EA9D7E"/>
<path transform="translate(1770,221)" d="m0 0 3 1 10 18 1 7-5-1-4-8v-2h-2l-4-14z" fill="#ED9C7D"/>
<path transform="translate(403,417)" d="m0 0 2 4-10 24-3 6-3 9-4 9h-2l1-5 14-35z" fill="#0EE2CE"/>
<path transform="translate(1862,1099)" d="m0 0 2 1v3h2l7 14 12 20 10 13 5 7-1 2-7-8-12-17-13-22-5-9z" fill="#E60CC2"/>
<path transform="translate(1936,1185)" d="m0 0 9 2 27 1 5 1 2 4h-17l-6-2-16-3z" fill="#EA9C7D"/>
<path transform="translate(541,111)" d="m0 0 3 1-16 8-17 7-14 4-4-1 8-3 12-5 16-6z" fill="#13E1D0"/>
<path transform="translate(1250,959)" d="m0 0h4l2 4 5 3 2 8v6l-2-4-3-1v-2l-4-2-3-4z" fill="#FA9567"/>
<path transform="translate(1688,958)" d="m0 0h50v1l-62 2 2 9 1 5-3-4-5-10v-2z" fill="#EA9C7D"/>
<path transform="translate(1076,1158)" d="m0 0 8 6 5 6 1 7-8 3v-6l-5-13z" fill="#F5F660"/>
<path transform="translate(1804,1209)" d="m0 0 9 2 3 1h24l19 2 4 2h-20l-23-1-14-4z" fill="#0AE2CC"/>
<path transform="translate(1772,959)" d="m0 0h14l8 6 3 4-1 2-15-6v-2l-5-1z" fill="#FA9567"/>
<path transform="translate(1630,457)" d="m0 0 2 3-2 4v5l-1 3-5 10-2 6-8 15-3 3-1-2 9-17 6-15 4-14z" fill="#0AE2CD"/>
<path transform="translate(570,97)" d="m0 0m-1 1m-2 1 2 1-9 6-19 10-21 9-3-1 24-11 22-12z" fill="#F6FA5D"/>
<path transform="translate(1079,97)" d="m0 0h10l1 8 1 4 9 9h-3l-18-18z" fill="#EA9D7E"/>
<path transform="translate(360,525)" d="m0 0 2 1-3 9-11 26h-2l1-6 9-23z" fill="#10E2CF"/>
<path transform="translate(2e3 1189)" d="m0 0h12l5 4v2l-7 3-10-5z" fill="#D210BB"/>
<path transform="translate(528,243)" d="m0 0 3 1 3 6-1 4-2 2-6 2-2 2 1-8z" fill="#4CC3B5"/>
<path transform="translate(1268,122)" d="m0 0h33v3l-8 1-9-1-15-1-1 3z" fill="#C11AB4"/>
<path transform="translate(1754,174)" d="m0 0h5l11 9 3 3 2 6h-2v-2l-4-2-9-7-1-2-3-1z" fill="#F409C1"/>
<path transform="translate(1665,577)" d="m0 0 1 2 7-2h9v4l-10 2h-9l-2-1 2-4z" fill="#F11BB8"/>
<path transform="translate(1721,532)" d="m0 0 2 1-11 11-11 9-9 7-6 4-2-1 10-8 6-5h2v-2l14-11z" fill="#FC9B79"/>
<path transform="translate(1098,97)" d="m0 0h30l-12 6-4-1-14-4z" fill="#FA9567"/>
<path transform="translate(228,1162)" d="m0 0 11 11v3l-6 2-2-5-5-5 1-5z" fill="#F409C1"/>
<path transform="translate(489,404)" d="m0 0h3l1 5-5 12-2-2-2-8v-2h2l2-4z" fill="#E214C0"/>
<path transform="translate(223,1010)" d="m0 0 2 1v7l-6 12-4 1 1-5 6-15z" fill="#C618B5"/>
<path transform="translate(1809,993)" d="m0 0h3l14 32-1 3-14-28z" fill="#ED9C7D"/>
<path transform="translate(421,374)" d="m0 0 3 3-1 5-3 7-3 2-3 7h-2l1-5z" fill="#1CE0D3"/>
<path transform="translate(1704,157)" d="m0 0 9 1 6 3v3h2l1 2 5 3 1 4-11-7-13-8z" fill="#F309C1"/>
<path transform="translate(1666,139)" d="m0 0 6 1 8 3 8 1v2l4 1 7 6-2 1-21-10-10-4z" fill="#E70CC2"/>
<path transform="translate(1764,958)" d="m0 0h29l7 14-1 2-7-10-6-4-22-1z" fill="#FE9B79"/>
<path transform="translate(501,129)" d="m0 0 4 1-9 4 3 14 2 9-2-1-7-18v-5l5-3z" fill="#F6FA5D"/>
<path transform="translate(473,445)" d="m0 0 2 1 1 5-5 12-3-2v-10h2l2-5z" fill="#E113C0"/>
<path transform="translate(1479,132)" d="m0 0h8l25 8 6 1 4 2v2l2 1-5-1-24-8-16-4z" fill="#ED9B7A"/>
<path transform="translate(1282,115)" d="m0 0h11l-4 3-10 2-13-2 2-2z" fill="#FA9567"/>
<path transform="translate(190,957)" d="m0 0h22v4l-7 16-3 1 3-9 4-10-19-1z" fill="#10E1CE"/>
<path transform="translate(1051,105)" d="m0 0 4 5 2 5h-2l9 5v2l-9-3-5-4-1-4h1z" fill="#10E2CF"/>
<path transform="translate(1940,1182)" d="m0 0 2 1v2l9-1 2 2 19 1v1h-27l-11-4 4-1z" fill="#F409C1"/>
<path transform="translate(1029,1039)" d="m0 0h3l8 17-1 3-5-6-2-6h-2l-1-7z" fill="#E11EBA"/>
<path transform="translate(198,958)" d="m0 0h12l-2 6-4 11-2 1 1-16-5-1z" fill="#4FC2B5"/>
<path transform="translate(1597,523)" d="m0 0 2 2-8 9-7 8-5 4v-3l11-11z" fill="#12E1D0"/>
<path transform="translate(1582,570)" d="m0 0 2 1-5 4h-2v3l10 1v1h-13l-5-1v-2l12-6z" fill="#EC9C7D"/>
<path transform="translate(479,426)" d="m0 0 6 2-4 10-4-2v-5z" fill="#E215BF"/>
<path transform="translate(1100,119)" d="m0 0 4 2 8 7 8 9 4 7-1 2-10-14-13-12z" fill="#EA9D7E"/>
<path transform="translate(1827,1205)" d="m0 0h7l10 3 4 4-11-2-10-4z" fill="#F4976E"/>
<path transform="translate(1149,960)" d="m0 0h3l1 9-2 9-2-2z" fill="#FA9567"/>
<path transform="translate(519,272)" d="m0 0 2 2 3 10v5l-2 1-5-9 2-4z" fill="#2BDAD0"/>
<path transform="translate(497,386)" d="m0 0 4 1-3 9-2 3-3-8h2v-4z" fill="#E215BF"/>
<path transform="translate(826,551)" d="m0 0 3 1 6 16h-2l-7-11z" fill="#D325B1"/>
<path transform="translate(1972,1207)" d="m0 0 4 2 8 1-2 2-14 1-2-2 6-2z" fill="#CC34A9"/>
<path transform="translate(513,345)" d="m0 0h3l1 4-3 8-3-1-1-6z" fill="#E216BE"/>
<path transform="translate(1884,1137)" d="m0 0 5 5 11 15-1 2-7-8-8-11z" fill="#E50CC3"/>
<path transform="translate(1099,1136)" d="m0 0 1 4-3 10-5 4-1-4 4-1v-6l3-6z" fill="#0AE2CC"/>
<path transform="translate(389,516)" d="m0 0 1 3-3 7-4 13h-3l3-10z" fill="#21E0D5"/>
<path transform="translate(1981,1198)" d="m0 0v3l-5 4-4 1-3-2v-2z" fill="#EB9C7D"/>
<path transform="translate(465,465)" d="m0 0h2l1 6-3 7-4-5 3-7z" fill="#E217BE"/>
<path transform="translate(1342,1172)" d="m0 0 11 7 6 4 4 4-1 2-5-5-9-5-6-5z" fill="#C528AF"/>
<path transform="translate(266,1196)" d="m0 0h1v6l-1 2-4 1h-9v-1l6-2 6-4z" fill="#D13DA5"/>
<path transform="translate(1083,1164)" d="m0 0 5 4 2 9h-5l-1-10z" fill="#FDFEFE"/>
<path transform="translate(1121,1155)" d="m0 0 2 1-7 8-10 7-3-1 16-12z" fill="#4FC2B5"/>
<path transform="translate(431,555)" d="m0 0 2 2-7 14-1-3 2-10h3z" fill="#CB20B2"/>
<path transform="translate(1516,157)" d="m0 0 7 1 17 8-3 1-12-5-9-4z" fill="#09E3CD"/>
<path transform="translate(488,133)" d="m0 0 2 1 4 12 3 7-1 3-9-20z" fill="#2ADFD8"/>
<path transform="translate(1734,175)" d="m0 0 4 3v2l4 2 10 10-1 2-11-11-7-6z" fill="#F409C1"/>
<path transform="translate(541,111)" d="m0 0 3 1-16 8h-3v-2z" fill="#17E1D1"/>
<path transform="translate(267,957)" d="m0 0h5l-2 6-3 3-2-6-3-2z" fill="#CE1BB5"/>
<path transform="translate(1745,505)" d="m0 0 2 2-11 13-5 4 2-4 7-8z" fill="#FE9B79"/>
<path transform="translate(1862,1099)" d="m0 0 2 1v3h2l5 10-1 4-8-14z" fill="#E80BC2"/>
<path transform="translate(1645,251)" d="m0 0h2l5 7 1 8-3-4-5-9z" fill="#F39870"/>
<path transform="translate(234,985)" d="m0 0 1 3h-2v6h-2l1 3-1 2h-3l1-5 3-8z" fill="#C618B5"/>
<path transform="translate(587,443)" d="m0 0 2 1 5 10v3h-2l-5-11z" fill="#0EE2CE"/>
<path transform="translate(1141,252)" d="m0 0h1l1 9h1v8l-2 2-1-2z" fill="#21E0D5"/>
<path transform="translate(239,969)" d="m0 0 1 4-3 9-1 2h-2l1-5z" fill="#C717B5"/>
<path transform="translate(350,549)" d="m0 0h2l-1 5-3 7h-2l1-6z" fill="#0EE2CE"/>
<path transform="translate(1971,1206)" d="m0 0 2 1-5 6h-7l5-4z" fill="#F409C1"/>
<path transform="translate(504,366)" d="m0 0h4l1 3-2 5-4-4z" fill="#E012C0"/>
<path transform="translate(74,1179)" d="m0 0 2 1-12 12v-3l6-7z" fill="#FAFCC4"/>
<path transform="translate(1304,1171)" d="m0 0 5 1 5 6-1 2-8-7z" fill="#FB966B"/>
<path transform="translate(175,982)" d="m0 0 2 1-3 10-2 2-1-3z" fill="#0DE2CE"/>
<path transform="translate(1652,122)" d="m0 0 8 1 6 2-4 2-10-3z" fill="#CF29AE"/>
<path transform="translate(152,1096)" d="m0 0 1 4-4 6h-2l1-5z" fill="#1DE0D3"/>
<path transform="translate(416,386)" d="m0 0 2 1-3 9-1 2h-2l1-5z" fill="#0DE2CE"/>
<path transform="translate(1051,105)" d="m0 0 4 5 2 5-5-2-1-1z" fill="#09E3CD"/>
<path transform="translate(1731,551)" d="m0 0 2 1v2l-6 4h-2l1-5z" fill="#D31CB5"/>
<path transform="translate(394,439)" d="m0 0 2 1-1 5-2 5-3-1z" fill="#0BE2CD"/>
<path transform="translate(571,406)" d="m0 0h2l3 7 1 4-2 1-4-9z" fill="#0CE2CE"/>
</svg>
